# xmcd
#
# Track frame offsets:
#	150
#	9891
#	20850
#	34158
#	44956
#	54715
#	61509
#	76195
#	89440
#	97897
#	108943
#
# Disc length: 1618 seconds
#
# Revision: 1
# Processed by: cddbd v1.5.2PL0 Copyright (c) Steve Scherf et al.
# Submitted via: audiograbber 1.83.01
#
DISCID=8206500b
DTITLE=Johnny Cash - The Johnny Cash Children's Album
DYEAR=1975
DGENRE=Country
TTITLE0=Nasty Dan
TTITLE1=One And One Makes Two
TTITLE2=I Got A Boy(And His Name Is John)
TTITLE3=Little Magic Glasses
TTITLE4=Miss Tara
TTITLE5=Dinosaur Song
TTITLE6=Tiger Whitehead 
TTITLE7=Call Of The Wild
TTITLE8=Little Green Fountain
TTITLE9=Old Shep
TTITLE10=(The) Timber Man
EXTD=
EXTT0=
EXTT1=
EXTT2=
EXTT3=
EXTT4=
EXTT5=
EXTT6=
EXTT7=
EXTT8=
EXTT9=
EXTT10=
PLAYORDER=
